<?xml version="1.0" encoding="UTF-8" standalone="no"?>
<svg
   xmlns:dc="http://purl.org/dc/elements/1.1/"
   xmlns:cc="http://creativecommons.org/ns#"
   xmlns:rdf="http://www.w3.org/1999/02/22-rdf-syntax-ns#"
   xmlns:svg="http://www.w3.org/2000/svg"
   xmlns="http://www.w3.org/2000/svg"
   viewBox="0 0 5912 1787.9333"
   height="1787.9333"
   width="5912"
   xml:space="preserve"
   id="svg2"
   version="1.1"><metadata
     id="metadata8"><rdf:RDF><cc:Work
         rdf:about=""><dc:format>image/svg+xml</dc:format><dc:type
           rdf:resource="http://purl.org/dc/dcmitype/StillImage" /></cc:Work></rdf:RDF></metadata><defs
     id="defs6"><linearGradient
       id="linearGradient32"
       spreadMethod="pad"
       gradientTransform="matrix(847.44312,1918.4449,1918.4449,-847.44312,178.39365,-258.04559)"
       gradientUnits="userSpaceOnUse"
       y2="0"
       x2="1"
       y1="0"
       x1="0"><stop
         id="stop24"
         offset="0"
         style="stop-opacity:1;stop-color:#2e3192" /><stop
         id="stop26"
         offset="0.517949"
         style="stop-opacity:1;stop-color:#0071bc" /><stop
         id="stop28"
         offset="0.987179"
         style="stop-opacity:1;stop-color:#29abe2" /><stop
         id="stop30"
         offset="1"
         style="stop-opacity:1;stop-color:#29abe2" /></linearGradient><linearGradient
       id="linearGradient56"
       spreadMethod="pad"
       gradientTransform="matrix(848.35876,1920.5178,1920.5178,-848.35876,81.032768,-216.83942)"
       gradientUnits="userSpaceOnUse"
       y2="0"
       x2="1"
       y1="0"
       x1="0"><stop
         id="stop48"
         offset="0"
         style="stop-opacity:1;stop-color:#2e3192" /><stop
         id="stop50"
         offset="0.517949"
         style="stop-opacity:1;stop-color:#0071bc" /><stop
         id="stop52"
         offset="0.987179"
         style="stop-opacity:1;stop-color:#29abe2" /><stop
         id="stop54"
         offset="1"
         style="stop-opacity:1;stop-color:#29abe2" /></linearGradient><linearGradient
       id="linearGradient80"
       spreadMethod="pad"
       gradientTransform="matrix(848.35876,1920.5178,1920.5178,-848.35876,140.07257,-242.91933)"
       gradientUnits="userSpaceOnUse"
       y2="0"
       x2="1"
       y1="0"
       x1="0"><stop
         id="stop72"
         offset="0"
         style="stop-opacity:1;stop-color:#2e3192" /><stop
         id="stop74"
         offset="0.517949"
         style="stop-opacity:1;stop-color:#0071bc" /><stop
         id="stop76"
         offset="0.987179"
         style="stop-opacity:1;stop-color:#29abe2" /><stop
         id="stop78"
         offset="1"
         style="stop-opacity:1;stop-color:#29abe2" /></linearGradient><linearGradient
       id="linearGradient104"
       spreadMethod="pad"
       gradientTransform="matrix(848.35876,1920.5178,1920.5178,-848.35876,206.69473,-272.34863)"
       gradientUnits="userSpaceOnUse"
       y2="0"
       x2="1"
       y1="0"
       x1="0"><stop
         id="stop96"
         offset="0"
         style="stop-opacity:1;stop-color:#2e3192" /><stop
         id="stop98"
         offset="0.517949"
         style="stop-opacity:1;stop-color:#0071bc" /><stop
         id="stop100"
         offset="0.987179"
         style="stop-opacity:1;stop-color:#29abe2" /><stop
         id="stop102"
         offset="1"
         style="stop-opacity:1;stop-color:#29abe2" /></linearGradient><linearGradient
       id="linearGradient128"
       spreadMethod="pad"
       gradientTransform="matrix(848.35876,1920.5178,1920.5178,-848.35876,273.31482,-301.77701)"
       gradientUnits="userSpaceOnUse"
       y2="0"
       x2="1"
       y1="0"
       x1="0"><stop
         id="stop120"
         offset="0"
         style="stop-opacity:1;stop-color:#2e3192" /><stop
         id="stop122"
         offset="0.517949"
         style="stop-opacity:1;stop-color:#0071bc" /><stop
         id="stop124"
         offset="0.987179"
         style="stop-opacity:1;stop-color:#29abe2" /><stop
         id="stop126"
         offset="1"
         style="stop-opacity:1;stop-color:#29abe2" /></linearGradient><linearGradient
       id="linearGradient154"
       spreadMethod="pad"
       gradientTransform="matrix(1069.744,1175.6757,1175.6757,-1069.744,287.23489,46.034386)"
       gradientUnits="userSpaceOnUse"
       y2="0"
       x2="1"
       y1="0"
       x1="0"><stop
         id="stop144"
         offset="0"
         style="stop-opacity:1;stop-color:#2e3192" /><stop
         id="stop146"
         offset="0.517949"
         style="stop-opacity:1;stop-color:#0071bc" /><stop
         id="stop148"
         offset="0.741812"
         style="stop-opacity:1;stop-color:#148dce" /><stop
         id="stop150"
         offset="0.987179"
         style="stop-opacity:1;stop-color:#29abe2" /><stop
         id="stop152"
         offset="1"
         style="stop-opacity:1;stop-color:#29abe2" /></linearGradient><linearGradient
       id="linearGradient178"
       spreadMethod="pad"
       gradientTransform="matrix(1294.1294,3122.6089,3122.6089,-1294.1294,1013.4755,-883.42059)"
       gradientUnits="userSpaceOnUse"
       y2="0"
       x2="1"
       y1="0"
       x1="0"><stop
         id="stop170"
         offset="0"
         style="stop-opacity:1;stop-color:#2e3192" /><stop
         id="stop172"
         offset="0.517949"
         style="stop-opacity:1;stop-color:#0071bc" /><stop
         id="stop174"
         offset="0.987179"
         style="stop-opacity:1;stop-color:#29abe2" /><stop
         id="stop176"
         offset="1"
         style="stop-opacity:1;stop-color:#29abe2" /></linearGradient><linearGradient
       id="linearGradient202"
       spreadMethod="pad"
       gradientTransform="matrix(1294.1294,3122.6089,3122.6089,-1294.1294,1596.1399,-1124.8992)"
       gradientUnits="userSpaceOnUse"
       y2="0"
       x2="1"
       y1="0"
       x1="0"><stop
         id="stop194"
         offset="0"
         style="stop-opacity:1;stop-color:#2e3192" /><stop
         id="stop196"
         offset="0.517949"
         style="stop-opacity:1;stop-color:#0071bc" /><stop
         id="stop198"
         offset="0.987179"
         style="stop-opacity:1;stop-color:#29abe2" /><stop
         id="stop200"
         offset="1"
         style="stop-opacity:1;stop-color:#29abe2" /></linearGradient><linearGradient
       id="linearGradient226"
       spreadMethod="pad"
       gradientTransform="matrix(1294.1294,3122.6089,3122.6089,-1294.1294,1862.7113,-1235.3766)"
       gradientUnits="userSpaceOnUse"
       y2="0"
       x2="1"
       y1="0"
       x1="0"><stop
         id="stop218"
         offset="0"
         style="stop-opacity:1;stop-color:#2e3192" /><stop
         id="stop220"
         offset="0.517949"
         style="stop-opacity:1;stop-color:#0071bc" /><stop
         id="stop222"
         offset="0.987179"
         style="stop-opacity:1;stop-color:#29abe2" /><stop
         id="stop224"
         offset="1"
         style="stop-opacity:1;stop-color:#29abe2" /></linearGradient><linearGradient
       id="linearGradient250"
       spreadMethod="pad"
       gradientTransform="matrix(1294.1294,3122.6089,3122.6089,-1294.1294,2109.6445,-1337.7152)"
       gradientUnits="userSpaceOnUse"
       y2="0"
       x2="1"
       y1="0"
       x1="0"><stop
         id="stop242"
         offset="0"
         style="stop-opacity:1;stop-color:#2e3192" /><stop
         id="stop244"
         offset="0.517949"
         style="stop-opacity:1;stop-color:#0071bc" /><stop
         id="stop246"
         offset="0.987179"
         style="stop-opacity:1;stop-color:#29abe2" /><stop
         id="stop248"
         offset="1"
         style="stop-opacity:1;stop-color:#29abe2" /></linearGradient><linearGradient
       id="linearGradient274"
       spreadMethod="pad"
       gradientTransform="matrix(1294.1294,3122.6089,3122.6089,-1294.1294,2464.8406,-1484.9221)"
       gradientUnits="userSpaceOnUse"
       y2="0"
       x2="1"
       y1="0"
       x1="0"><stop
         id="stop266"
         offset="0"
         style="stop-opacity:1;stop-color:#2e3192" /><stop
         id="stop268"
         offset="0.517949"
         style="stop-opacity:1;stop-color:#0071bc" /><stop
         id="stop270"
         offset="0.987179"
         style="stop-opacity:1;stop-color:#29abe2" /><stop
         id="stop272"
         offset="1"
         style="stop-opacity:1;stop-color:#29abe2" /></linearGradient><linearGradient
       id="linearGradient298"
       spreadMethod="pad"
       gradientTransform="matrix(1294.1294,3122.6089,3122.6089,-1294.1294,2882.2854,-1657.9274)"
       gradientUnits="userSpaceOnUse"
       y2="0"
       x2="1"
       y1="0"
       x1="0"><stop
         id="stop290"
         offset="0"
         style="stop-opacity:1;stop-color:#2e3192" /><stop
         id="stop292"
         offset="0.517949"
         style="stop-opacity:1;stop-color:#0071bc" /><stop
         id="stop294"
         offset="0.987179"
         style="stop-opacity:1;stop-color:#29abe2" /><stop
         id="stop296"
         offset="1"
         style="stop-opacity:1;stop-color:#29abe2" /></linearGradient><linearGradient
       id="linearGradient322"
       spreadMethod="pad"
       gradientTransform="matrix(1294.1294,3122.6089,3122.6089,-1294.1294,3209.1677,-1793.3999)"
       gradientUnits="userSpaceOnUse"
       y2="0"
       x2="1"
       y1="0"
       x1="0"><stop
         id="stop314"
         offset="0"
         style="stop-opacity:1;stop-color:#2e3192" /><stop
         id="stop316"
         offset="0.517949"
         style="stop-opacity:1;stop-color:#0071bc" /><stop
         id="stop318"
         offset="0.987179"
         style="stop-opacity:1;stop-color:#29abe2" /><stop
         id="stop320"
         offset="1"
         style="stop-opacity:1;stop-color:#29abe2" /></linearGradient></defs><g
     transform="matrix(1.3333333,0,0,-1.3333333,0,1787.9333)"
     id="g10"><g
       id="g12"><g
         id="g14"><g
           id="g20"><g
             id="g22"><path
               id="path34"
               style="fill:url(#linearGradient32);stroke:none"
               d="M 674.866,1171.033 172.077,1056.545 c -6.005,-1.366 -11.22,-5.062 -14.502,-10.273 v 0 c -3.287,-5.218 -4.364,-11.529 -2.995,-17.542 v 0 L 346.33,186.68 c 1.367,-6.008 5.067,-11.226 10.284,-14.505 v 0 c 5.212,-3.276 11.513,-4.349 17.515,-2.982 v 0 l 644.86,146.833 c 6.013,1.369 11.238,5.071 14.521,10.293 v 0 c 3.285,5.22 4.36,11.532 2.99,17.547 v 0 l -54.82,240.71 c -0.902,3.958 -6.415,4.288 -7.782,0.464 v 0 c -8.078,-22.605 -9.538,-47.045 -4.209,-70.451 v 0 l 32.57,-143.048 c 3.764,-16.491 -6.556,-32.88 -23.046,-36.643 v 0 L 401.843,203.419 c -16.491,-3.744 -32.9,6.576 -36.644,23.066 v 0 l -176.377,774.549 c -3.764,16.49 6.556,32.9 23.046,36.663 v 0 l 437.07,99.51 c 16.49,3.763 32.879,-6.556 36.643,-23.046 v 0 l 23.436,-102.958 c 1.369,-6.018 5.078,-11.245 10.306,-14.527 v 0 c 5.214,-3.273 11.513,-4.344 17.516,-2.978 v 0 l 87.809,19.981 c 16.49,3.764 32.9,-6.555 36.643,-23.045 v 0 l 43.543,-191.205 c 1.498,-6.578 10.658,-7.124 12.928,-0.772 v 0 c 6.053,16.94 7.147,35.256 3.152,52.796 v 0 l -40.715,178.795 c -1.437,6.315 -4.027,12.312 -7.638,17.687 v 0 l -175.609,123.103 h -0.02 l -0.445,0.323 c -3.314,0.65 -6.675,0.974 -10.034,0.974 v 0 c -3.889,0 -7.775,-0.434 -11.587,-1.302 M 727.89,1050.97 c -0.546,2.428 -0.81,4.816 -0.81,7.103 v 0 c 0,23.592 27.335,39.415 48.237,24.765 v 0 l 20.356,-14.264 36.137,-25.333 -67.277,-15.317 c -2.29,-0.523 -4.58,-0.774 -6.834,-0.774 v 0 c -13.956,0 -26.57,9.622 -29.809,23.82" /></g></g></g></g><g
       id="g36"><g
         id="g38"><g
           id="g44"><g
             id="g46"><path
               id="path58"
               style="fill:url(#linearGradient56);stroke:none"
               d="M 658.365,894.053 446.008,845.696 c -7.329,-1.669 -11.92,-8.965 -10.251,-16.295 v 0 c 1.669,-7.329 8.966,-11.919 16.295,-10.25 v 0 l 212.358,48.356 c 7.329,1.669 11.919,8.967 10.251,16.296 v 0 c -1.438,6.311 -7.051,10.592 -13.262,10.592 v 0 c -1.001,0 -2.017,-0.111 -3.034,-0.342" /></g></g></g></g><g
       id="g60"><g
         id="g62"><g
           id="g68"><g
             id="g70"><path
               id="path82"
               style="fill:url(#linearGradient80);stroke:none"
               d="M 768.924,810.445 385.497,723.134 c -7.328,-1.668 -11.919,-8.966 -10.249,-16.295 v 0 c 1.668,-7.328 8.965,-11.919 16.294,-10.25 v 0 L 774.969,783.9 c 7.327,1.669 11.919,8.966 10.25,16.294 v 0 c -1.438,6.313 -7.051,10.593 -13.262,10.594 v 0 c -1.001,0 -2.016,-0.111 -3.033,-0.343" /></g></g></g></g><g
       id="g84"><g
         id="g86"><g
           id="g92"><g
             id="g94"><path
               id="path106"
               style="fill:url(#linearGradient104);stroke:none"
               d="M 816.653,696.21 391.936,599.495 c -7.329,-1.668 -11.919,-8.965 -10.251,-16.294 v 0 c 1.669,-7.329 8.967,-11.919 16.295,-10.25 v 0 l 424.717,96.713 c 7.329,1.67 11.919,8.966 10.25,16.296 v 0 c -1.437,6.311 -7.05,10.592 -13.262,10.592 v 0 c -1.001,0 -2.016,-0.111 -3.032,-0.342" /></g></g></g></g><g
       id="g108"><g
         id="g110"><g
           id="g116"><g
             id="g118"><path
               id="path130"
               style="fill:url(#linearGradient128);stroke:none"
               d="m 775.899,561.829 -289.046,-65.82 c -7.327,-1.669 -11.917,-8.965 -10.249,-16.294 v 0 c 1.669,-7.329 8.965,-11.919 16.295,-10.25 v 0 l 289.045,65.819 c 7.328,1.668 11.919,8.967 10.251,16.295 v 0 c -1.438,6.311 -7.051,10.592 -13.262,10.592 v 0 c -1.001,0 -2.017,-0.111 -3.034,-0.342" /></g></g></g></g><g
       id="g132"><g
         id="g134"><g
           id="g140"><g
             id="g142"><path
               id="path156"
               style="fill:url(#linearGradient154);stroke:none"
               d="m 1110.073,1134.028 -10.101,-25.703 -3.529,1.387 c -2.221,0.872 -4.573,1.354 -6.986,1.43 v 0 c -11.684,0.363 -23.193,-8.704 -28.639,-22.563 v 0 l -11.327,-28.819 -0.215,0.084 c -4.299,1.695 -6.413,6.552 -4.722,10.851 v 0 l 1.898,4.829 c 0.859,2.185 0.752,4.509 -0.12,6.511 v 0 c -1.552,3.616 -5.64,6.129 -10.979,4.776 v 0 c -4.098,-1.037 -7.348,-4.178 -8.894,-8.113 v 0 L 951.683,888.452 c -2.145,-5.458 5.494,-9.272 8.569,-4.279 v 0 c 27.639,44.863 49.33,100.053 49.33,100.053 v 0 l 10.404,26.467 c 3.609,9.187 10.262,16.593 18.564,21.232 v 0 L 867.657,597.133 c -7.394,-18.814 -13.106,-38.208 -16.975,-57.636 v 0 c -2.569,-12.879 -2.122,-20.479 -1.648,-28.531 v 0 c 0.24,-4.119 0.491,-8.378 0.398,-13.85 v 0 l -0.003,-0.171 c -0.058,-3.845 1.395,-7.496 3.885,-10.312 v 0 c 1.823,-2.06 2.266,-5 1.26,-7.56 v 0 l -5.412,-13.772 c -1.408,-3.581 -0.288,-7.796 2.93,-9.907 v 0 c 4.418,-2.899 10.154,-0.886 11.98,3.762 v 0 l 5.487,13.958 c 0.954,2.427 3.22,4.17 5.828,4.237 v 0 c 2.696,0.069 6.45,1.121 10.31,5.409 v 0 c 24.387,27.09 40.307,48.812 54.82,85.735 v 0 l 193.162,491.446 c 6.706,17.066 1.565,34.52 -11.703,39.734 v 0 l -3.528,1.386 9.936,25.278 c 2.682,6.825 0.885,11.747 -3.236,14.59 v 0 c -1.593,1.098 -3.322,1.651 -5.046,1.651 v 0 c -3.899,0 -7.777,-2.823 -10.029,-8.552" /></g></g></g></g><g
       id="g158"><g
         id="g160"><g
           id="g166"><g
             id="g168"><path
               id="path180"
               style="fill:url(#linearGradient178);stroke:none"
               d="m 1446.517,802.399 c 0,-214.428 324.04,-123.128 324.04,-263.847 v 0 c 0,-49.418 -39.516,-85.437 -109.768,-85.437 v 0 c -69.374,0 -104.502,38.532 -108.893,86.274 v 0 h -107.135 c 0,-103.026 93.963,-166.685 216.028,-166.685 v 0 c 136.115,0 210.758,83.761 210.758,170.873 v 0 c 0,212.754 -323.162,130.667 -323.162,262.173 v 0 c 0,56.117 44.785,82.921 102.743,81.246 v 0 c 63.227,-1.676 99.232,-37.692 102.745,-77.059 v 0 h 110.646 c -8.78,99.676 -91.325,158.307 -208.121,158.307 v 0 c -124.699,0 -209.881,-63.659 -209.881,-165.845" /></g></g></g></g><g
       id="g182"><g
         id="g184"><g
           id="g190"><g
             id="g192"><path
               id="path204"
               style="fill:url(#linearGradient202);stroke:none"
               d="M 2172.75,961.543 1954.089,378.569 h 104.501 l 43.908,118.939 h 255.541 l 43.909,-118.939 h 105.379 l -218.662,582.974 z m 57.957,-115.59 99.232,-270.548 h -199.341 z" /></g></g></g></g><g
       id="g206"><g
         id="g208"><g
           id="g214"><g
             id="g216"><path
               id="path228"
               style="fill:url(#linearGradient226);stroke:none"
               d="m 2602.167,378.569 h 100.11 v 582.136 h -100.11 z" /></g></g></g></g><g
       id="g230"><g
         id="g232"><g
           id="g238"><g
             id="g240"><path
               id="path252"
               style="fill:url(#linearGradient250);stroke:none"
               d="m 2799.993,611.772 h 269.581 v 82.987 h -269.581 z" /></g></g></g></g><g
       id="g254"><g
         id="g256"><g
           id="g262"><g
             id="g264"><path
               id="path276"
               style="fill:url(#linearGradient274);stroke:none"
               d="M 3189.339,961.543 V 378.569 h 337.214 v 77.896 H 3289.45 v 178.411 h 210.756 v 77.897 H 3289.45 v 170.873 h 237.103 v 77.897 z" /></g></g></g></g><g
       id="g278"><g
         id="g280"><g
           id="g286"><g
             id="g288"><path
               id="path300"
               style="fill:url(#linearGradient298);stroke:none"
               d="m 3636.313,802.399 c 0,-214.428 324.04,-123.128 324.04,-263.847 v 0 c 0,-49.418 -39.516,-85.437 -109.769,-85.437 v 0 c -69.373,0 -104.5,38.532 -108.891,86.274 v 0 h -107.135 c 0,-103.026 93.963,-166.685 216.026,-166.685 v 0 c 136.116,0 210.757,83.761 210.757,170.873 v 0 c 0,212.754 -323.16,130.667 -323.16,262.173 v 0 c 0,56.117 44.786,82.921 102.744,81.246 v 0 c 63.226,-1.676 99.231,-37.692 102.744,-77.059 v 0 h 110.647 c -8.78,99.676 -91.326,158.307 -208.122,158.307 v 0 c -124.699,0 -209.881,-63.659 -209.881,-165.845" /></g></g></g></g><g
       id="g302"><g
         id="g304"><g
           id="g310"><g
             id="g312"><path
               id="path324"
               style="fill:url(#linearGradient322);stroke:none"
               d="m 4179.89,378.569 h 100.111 V 960.705 H 4179.89 Z" /></g></g></g></g></g></svg>